# xmcd
#
# Track frame offsets:
# 150
# 16037
# 28287
# 38842
# 55042
# 71155
# 83412
# 98515
# 120415
# 136422
# 148205
# 165320
# 172895
# 185147
# 199700
# 217047
# 231252
# 252002
# 266065
# 280937
# 296147
# 308017
#
# Disc length: 4162 seconds
#
#
# Revision: 0
# Processed by: cddbd v1.4PL0 Copyright (c) Steve Scherf et al.
# Submitted via: FreeRIP 2.50 
#
DISCID=3a104016
DTITLE=Lobo - Just a singer
DYEAR=1997
DGENRE=Country
TTITLE0=Rings
TTITLE1=The shelter of your eyes
TTITLE2=I'm only sleeping
TTITLE3=Daydream believer
TTITLE4=Reason to believe
TTITLE5=Armstrong
TTITLE6=Universal soldier
TTITLE7=Let's get together
TTITLE8=Lodi
TTITLE9=All for the love of a girl
TTITLE10=Would I still have you
TTITLE11=The war to end all wars
TTITLE12=My momma had soul
TTITLE13=Three Pick-Ups
TTITLE14=Morning sun
TTITLE15=Don't tell me goodnight
TTITLE16=A cowboy afraid of horses
TTITLE17=Then I met you
TTITLE18=Something to see me through
TTITLE19=Thinking of you
TTITLE20=Everyday is my way
TTITLE21=However...
EXTD=CD contains the 2 LPs "Just A Singer" and "A Cowboy Afraid Of Horses"
EXTT0=
EXTT1=
EXTT2=
EXTT3=
EXTT4=
EXTT5=
EXTT6=
EXTT7=
EXTT8=
EXTT9=
EXTT10=
EXTT11=
EXTT12=
EXTT13=
EXTT14=
EXTT15=
EXTT16=
EXTT17=
EXTT18=
EXTT19=
EXTT20=
EXTT21=
PLAYORDER=
